<?xml version="1.0" encoding="UTF-8"?>
<svg id="Layer_1" xmlns="http://www.w3.org/2000/svg" viewBox="0 0 1024 512">
	<defs>
		<style>
			.cls-1 {
				stroke: #0e700e;
			}

			.cls-1,
			.cls-2 {
				fill: none;
				stroke-linecap: round;
				stroke-miterlimit: 10;
				stroke-width: 12.69px;
			}

			.cls-2 {
				opacity: .5;
				stroke: #9fd89f;
			}

			.cls-3 {
				fill: #0e700e;
			}

			.cls-4 {
				fill: #242424;
			}

			@media (prefers-color-scheme: dark) {
				.cls-1 {
					stroke: #54b054;
				}

				.cls-2 {
					stroke: #094509;
				}

				.cls-3 {
					fill: #54b054;
				}

				.cls-4 {
					fill: #ffffff;
				}
			}
		</style>
	</defs>
	<circle class="cls-2" cx="412.24" cy="239.44" r="93.87" />
	<g>
		<path class="cls-4"
			d="M461.84,211.45v-19.62l2.8-7.47c2.49.62,4.05,2.18,4.67,4.67v26.16l-1.87,1.87-5.6-5.6ZM467.44,217.99l1.87,1.87v26.16c-.62,2.49-2.18,4.05-4.67,4.67l-2.8-7.47v-19.62l5.6-5.6Z" />
		<path class="cls-4"
			d="M496.4,193.71v17.75l-5.6,5.6-1.87-1.87v-24.29l7.47,2.8ZM496.4,224.53v19.62l-2.8,7.47c-2.49-.62-4.05-2.18-4.67-4.67v-26.16l1.87-1.87,5.6,5.61ZM518.82,191.84h-22.33l-7.47-2.8c.62-2.49,2.18-4.05,4.67-4.67h27.93l-2.8,7.47ZM512.28,215.19l-3.74,3.74-3.74-3.74v-21.48h7.47v21.48ZM520.68,211.45v-19.62l2.8-7.47c2.49.62,4.05,2.18,4.67,4.67v26.16l-1.87,1.87-5.6-5.6ZM526.29,218.93l1.87,1.87v26.16c-.62,2.49-2.18,4.05-4.67,4.67l-2.8-7.47v-19.62l5.6-5.61Z" />
		<path class="cls-4"
			d="M577.66,191.84h-22.42l-7.47-2.8v-4.67h29.89l3.74,3.74-3.74,3.74ZM555.25,193.71v17.75l-5.6,5.6-1.87-1.87v-24.29l7.47,2.8ZM555.25,224.53v19.62l-2.8,7.47c-2.49-.62-4.05-2.18-4.67-4.67v-26.16l1.87-1.87,5.6,5.61ZM579.53,214.26l3.74,3.74-3.74,3.74h-24.29l-3.74-3.74,3.74-3.74h24.29ZM579.53,211.45v-19.62l2.8-2.8,4.67,4.67v21.48l-1.87,1.87-5.6-5.6Z" />
		<path class="cls-4"
			d="M608.49,217.06l-1.87-1.87v-26.16c.62-2.49,2.18-4.05,4.67-4.67l2.8,7.47v19.62l-5.6,5.6ZM614.09,224.53v19.62l-2.8,7.47c-2.49-.62-4.05-2.18-4.67-4.67v-26.16l1.87-1.87,5.6,5.61ZM615.96,244.15h22.42l7.47,2.8c-.62,2.49-2.18,4.05-4.67,4.67h-28.02l2.8-7.47Z" />
		<path class="cls-4"
			d="M672.94,193.71v17.75l-5.6,5.6-1.87-1.87v-24.29l7.47,2.8ZM665.47,245.08v-24.29l1.87-1.87,5.6,5.61v17.75l-7.47,2.8ZM700.97,251.62h-30.83c-2.49-.62-4.05-2.18-4.67-4.67l7.47-2.8h25.22l2.8,7.47ZM698.16,191.84h-25.13l-7.47-2.8c.62-2.49,2.18-4.05,4.67-4.67h30.73l-2.8,7.47ZM697.23,214.26l3.74,3.74-3.74,3.74h-24.29l-3.74-3.74,3.74-3.74h24.29Z" />
	</g>
	<path class="cls-1"
		d="M412.24,145.57c-51.85,0-93.87,42.03-93.87,93.87s42.03,93.87,93.87,93.87c40.19,0,74.46-25.24,87.86-60.74" />
	<path class="cls-4"
		d="M394.28,200.33v28.6l-9.03,9.03-3.01-3.01v-39.14l12.04,4.52ZM434.92,293.66h-45.16c-4.02-1-6.52-3.51-7.53-7.53l12.04-4.52h36.13l4.52,12.04ZM394.43,197.32l-12.04-4.52c1-4.01,3.51-6.52,7.53-7.53h48.02c4.01,1,6.52,3.51,7.53,7.53l-12.04,4.52h-38.99ZM433.42,233.44l6.02,6.02-6.02,6.02h-39.14l-6.02-6.02,6.02-6.02h39.14ZM442.45,240.97l3.01,3.01v42.15c-1,4.01-3.51,6.52-7.53,7.53l-4.52-12.04v-31.61l9.03-9.03Z" />
	<g>
		<path class="cls-3" d="M574.97,273.46h-20.12v61.81h-11.94v-61.81h-20.07v-10.13h52.13v10.13Z" />
		<path class="cls-3"
			d="M597.55,310.24v25.04h-11.94v-71.95h22.18c8.26,0,14.61,1.93,19.04,5.79,4.43,3.86,6.65,9.42,6.65,16.68s-2.48,13.31-7.43,17.76c-4.95,4.45-11.62,6.67-20.02,6.67h-8.48ZM597.55,273.11v27.29h7.93c4.98,0,8.81-1.23,11.46-3.69,2.66-2.46,3.99-5.93,3.99-10.41s-1.25-7.59-3.74-9.83c-2.49-2.24-6.18-3.36-11.06-3.36h-8.58Z" />
	</g>
</svg>
